<svg width="24" height="24" viewBox="0 0 24 24" fill="none" xmlns="http://www.w3.org/2000/svg">
  <path d="M6 2C5.44772 2 5 2.44772 5 3V12C5 16.4183 8.58172 20 13 20H17V22C17 22.5523 17.4477 23 18 23C18.5523 23 19 22.5523 19 22V20H21C21.5523 20 22 19.5523 22 19C22 18.4477 21.5523 18 21 18H13C9.68629 18 7 15.3137 7 12V11H10C10.5523 11 11 10.5523 11 10C11 9.44772 10.5523 9 10 9H7V8H9C9.55228 8 10 7.55228 10 7C10 6.44772 9.55228 6 9 6H7V5H10C10.5523 5 11 4.55228 11 4C11 3.44772 10.5523 3 10 3H6C5.44772 3 5 3.44772 5 4C5 4.55228 5.44772 5 6 5V6C5.44772 6 5 6.44772 5 7C5 7.55228 5.44772 8 6 8V9C5.44772 9 5 9.44772 5 10C5 10.5523 5.44772 11 6 11V12C5.44772 12 5 12.4477 5 13C5 13.5523 5.44772 14 6 14V3C5.44772 3 5 2.55228 5 2Z" fill="currentColor"/>
  <path d="M14 2V6H16V7H15V8H16V9H15V10H16V11H18V2H14Z" fill="currentColor"/>
  <circle cx="15" cy="14" r="1" fill="currentColor"/>
  <circle cx="18" cy="14" r="1" fill="currentColor"/>
  <circle cx="20" cy="14" r="1" fill="currentColor"/>
</svg>
