<svg width="24" height="24" viewBox="0 0 24 24" fill="none" xmlns="http://www.w3.org/2000/svg">
  <path d="M12 2C13.1046 2 14 2.89543 14 4V6H10V4C10 2.89543 10.8954 2 12 2Z" fill="currentColor"/>
  <path d="M6 7V6C6 4.89543 6.89543 4 8 4V2C5.79086 2 4 3.79086 4 6V7C2.89543 7 2 7.89543 2 9V19C2 20.1046 2.89543 21 4 21H20C21.1046 21 22 20.1046 22 19V9C22 7.89543 21.1046 7 20 7V6C20 3.79086 18.2091 2 16 2V4C17.1046 4 18 4.89543 18 6V7H6Z" fill="currentColor"/>
  <circle cx="17" cy="13" r="2" fill="white"/>
  <circle cx="7" cy="13" r="2" fill="white"/>
  <path d="M9 16C9 15.4477 9.44772 15 10 15H14C14.5523 15 15 15.4477 15 16C15 16.5523 14.5523 17 14 17H10C9.44772 17 9 16.5523 9 16Z" fill="white"/>
</svg>
