<svg width="24" height="24" viewBox="0 0 24 24" fill="none" xmlns="http://www.w3.org/2000/svg">
  <path d="M12 2C13.1046 2 14 2.89543 14 4C14 4.74028 13.5978 5.38663 13 5.73244V7C13 9.20914 14.7909 11 17 11H18C18.5523 11 19 11.4477 19 12C19 12.5523 18.5523 13 18 13H17C16.4477 13 16 13.4477 16 14V15H18C19.1046 15 20 15.8954 20 17V19C20 20.1046 19.1046 21 18 21H6C4.89543 21 4 20.1046 4 19V17C4 15.8954 4.89543 15 6 15H8V14C8 13.4477 7.55228 13 7 13H6C5.44772 13 5 12.5523 5 12C5 11.4477 5.44772 11 6 11H7C9.20914 11 11 9.20914 11 7V5.73244C10.4022 5.38663 10 4.74028 10 4C10 2.89543 10.8954 2 12 2Z" fill="currentColor"/>
  <circle cx="17" cy="7" r="3" fill="#ef4444"/>
  <circle cx="17" cy="7" r="2" fill="white"/>
</svg>
