<svg width="24" height="24" viewBox="0 0 24 24" fill="none" xmlns="http://www.w3.org/2000/svg">
  <circle cx="8" cy="6" r="3" fill="currentColor"/>
  <circle cx="16" cy="6" r="3" fill="currentColor"/>
  <path d="M8 10C5.79086 10 4 11.7909 4 14V17C4 17.5523 4.44772 18 5 18H11C11.5523 18 12 17.5523 12 17V14C12 11.7909 10.2091 10 8 10Z" fill="currentColor"/>
  <path d="M16 10C13.7909 10 12 11.7909 12 14V17C12 17.5523 12.4477 18 13 18H19C19.5523 18 20 17.5523 20 17V14C20 11.7909 18.2091 10 16 10Z" fill="currentColor"/>
</svg>
