<svg width="24" height="24" viewBox="0 0 24 24" fill="none" xmlns="http://www.w3.org/2000/svg">
  <path d="M8 2C8 1.44772 8.44772 1 9 1H15C15.5523 1 16 1.44772 16 2C16 2.55228 15.5523 3 15 3H9C8.44772 3 8 2.55228 8 2Z" fill="currentColor"/>
  <path d="M9 3V8C9 11.3137 11.6863 14 15 14C18.3137 14 21 11.3137 21 8V7C21 6.44772 20.5523 6 20 6C19.4477 6 19 6.44772 19 7V8C19 10.2091 17.2091 12 15 12C12.7909 12 11 10.2091 11 8V3H9Z" fill="currentColor"/>
  <path d="M3 3V8C3 11.3137 5.68629 14 9 14C12.3137 14 15 11.3137 15 8V7C15 6.44772 14.5523 6 14 6C13.4477 6 13 6.44772 13 7V8C13 10.2091 11.2091 12 9 12C6.79086 12 5 10.2091 5 8V3H3Z" fill="currentColor"/>
  <circle cx="20" cy="18" r="3" fill="currentColor"/>
  <path d="M15 14V16C15 17.1046 15.8954 18 17 18H17.0294" stroke="currentColor" stroke-width="2" stroke-linecap="round"/>
</svg>
